<?xml version="1.0" encoding="UTF-8" standalone="no"?>
<svg xmlns:dc="http://purl.org/dc/elements/1.1/" xmlns:cc="http://creativecommons.org/ns#" xmlns:rdf="http://www.w3.org/1999/02/22-rdf-syntax-ns#" xmlns:svg="http://www.w3.org/2000/svg" xmlns="http://www.w3.org/2000/svg" xmlns:sodipodi="http://sodipodi.sourceforge.net/DTD/sodipodi-0.dtd" xmlns:inkscape="http://www.inkscape.org/namespaces/inkscape" inkscape:version="1.0beta2 (2b71d25, 2019-12-03)" height="277.5" width="213.8" sodipodi:docname="symboltext-xprtz-white.svg" xml:space="preserve" viewBox="0 0 213.8 277.50001" y="0px" x="0px" id="Layer_1" version="1.1"><metadata id="metadata114"><rdf:RDF><cc:Work rdf:about=""><dc:format>image/svg+xml</dc:format><dc:type rdf:resource="http://purl.org/dc/dcmitype/StillImage"/><dc:title/></cc:Work></rdf:RDF></metadata><defs id="defs112"/><sodipodi:namedview inkscape:current-layer="Layer_1" inkscape:window-maximized="0" inkscape:window-y="23" inkscape:window-x="0" inkscape:cy="139.44999" inkscape:cx="107.65001" inkscape:zoom="1.6640931" fit-margin-bottom="0" fit-margin-right="0" fit-margin-left="0" fit-margin-top="0" inkscape:pagecheckerboard="true" showgrid="false" id="namedview110" inkscape:window-height="1395" inkscape:window-width="3440" inkscape:pageshadow="2" inkscape:pageopacity="0" guidetolerance="10" gridtolerance="10" objecttolerance="10" borderopacity="1" inkscape:document-rotation="0" bordercolor="#666666" pagecolor="#ffffff"/>
<style id="style87" type="text/css">
	.st0{fill:url(#SVGID_1_);}
	.st1{fill:url(#SVGID_2_);}
	.st2{fill:#FFFFFF;}
</style>
<g transform="translate(-313.3,-158.2)" id="g96">
	<linearGradient y2="235.5244" x2="405.87369" y1="199.53641" x1="369.02399" gradientUnits="userSpaceOnUse" id="SVGID_1_">
		<stop id="stop89" style="stop-color:#FFFFFF;stop-opacity:0" offset="0"/>
		<stop id="stop91" style="stop-color:#333333" offset="1"/>
	</linearGradient>
	<polygon style="fill:url(#SVGID_1_)" id="polygon94" points="412.9,227.8 398.1,242.8 361.4,206.2 391.1,206.2 " class="st0"/>
</g>
<linearGradient y2="271.19351" x2="412.74371" y1="313.78989" x1="453.47391" gradientUnits="userSpaceOnUse" id="SVGID_2_">
	<stop id="stop98" style="stop-color:#FFFFFF;stop-opacity:0" offset="0"/>
	<stop id="stop100" style="stop-color:#333333" offset="1"/>
</linearGradient>
<polygon transform="translate(-313.3,-158.2)" style="fill:url(#SVGID_2_)" id="polygon103" points="405.4,280.1 420.2,265.2 479.2,324.1 449.5,324.1 " class="st1"/>
<path inkscape:connector-curvature="0" id="path105" d="m 213.8,106.9 c 0,59 -47.8,106.9 -106.9,106.9 C 47.8,213.8 0,166 0,106.9 0,47.8 47.8,0 106.9,0 166,0 213.8,47.9 213.8,106.9 Z M 48.1,165.8 H 77.9 L 99.5,144.1 84.6,129.3 Z M 99.6,69.6 77.8,47.9 H 48.1 l 36.7,36.6 z m 7.3,37.3 L 165.8,48 H 136 L 92.1,92.1 v 0 0 29.8 l 44.1,43.9 h 29.7 z" class="st2"/>
<path inkscape:connector-curvature="0" id="path107" d="M 17.6,256.1 3.8,235.5 h 13.4 l 7.4,11.8 7.5,-11.8 H 45.2 L 31.4,256 45.8,277.5 H 32.4 l -8,-12.7 -8.1,12.7 H 3.2 Z m 32.6,-20.7 h 18 c 10.6,0 17.5,5.5 17.5,14.8 v 0.1 c 0,9.9 -7.6,15.1 -18.1,15.1 h -5.8 v 12 H 50.2 Z m 17.1,20.9 c 4.1,0 6.7,-2.2 6.7,-5.5 v -0.1 c 0,-3.6 -2.5,-5.5 -6.7,-5.5 h -5.5 v 11.1 z m 23.2,-20.9 h 19.9 c 6.4,0 10.9,1.7 13.7,4.6 2.5,2.4 3.7,5.6 3.7,9.8 v 0.1 c 0,6.4 -3.4,10.7 -8.6,12.9 l 10,14.6 h -13.5 l -8.5,-12.7 h -5.1 v 12.7 H 90.5 Z m 19.4,20.2 c 4,0 6.2,-1.9 6.2,-5 v -0.1 c 0,-3.3 -2.4,-5 -6.3,-5 h -7.6 v 10.1 z m 34,-10 h -12.6 v -10.2 h 36.8 v 10.2 h -12.6 v 31.8 h -11.6 z m 27.5,23.4 21.1,-23.7 h -20.3 v -9.8 h 36.4 v 8.5 l -21.1,23.7 h 21.1 v 9.8 H 171.5 V 269 Z" class="st2"/>
</svg>